<svg version="1" xmlns="http://www.w3.org/2000/svg" width="400" height="400" viewBox="0 0 300.000000 300.000000"><path d="M66.2 2c-22 5.8-39.4 22.7-44.7 43.5-4.3 16.8.6 36.4 12.3 49.5l4.9 5.5-5.4 6C17.4 124 4.5 150.2 1 172.2c-1.8 10.9-.8 31.1 2 41.3 7.9 29.6 31.3 57.1 61.6 72.4 18.5 9.3 33.1 13 53.5 13.8 22.5.9 38.9-2.3 57.6-11.2 29.7-14 58-44.1 67.3-71.4 2.2-6.4 2.7-7.1 5.1-7.1 4.8 0 18-3.9 24.1-7.2 17.2-9.2 27.8-26.2 27.8-44.7 0-15.6-5.1-27.3-17.5-39.7-6.6-6.7-9.6-8.9-17.5-12.7-14.7-7.2-29.5-9.3-43.7-6.3-5.9 1.2-6.4 1.1-8-.7-3.6-4-17.2-13.4-25.9-17.9-10.1-5.2-23.1-10-31.9-11.7-3.3-.7-6.7-1.4-7.5-1.7-1.2-.3-1.5-2.2-1.5-9.1-.2-26.6-20-50.3-47.5-56.7C90-.6 75.2-.3 66.2 2zm29.7 18.9c8.2 2.6 13.8 6 19.5 12 21.6 23.2 7.7 58.6-25.1 64.3-18.3 3.1-37.8-6.4-45.5-22-3.1-6.2-3.3-7.4-3.3-16.7 0-9.3.2-10.5 3.2-16.6 8.9-18 31.4-27.2 51.2-21zM250.5 118c11.3 3.9 20.4 12 25.7 22.8 3.1 6.2 3.3 7.3 3.3 17.2 0 9.1-.3 11.2-2.5 15.5-14.4 29.4-59.2 26.4-74.6-5-15.3-31.1 14.2-62.1 48.1-50.5z"/><path d="M75.4 45.9C66 51.6 64.6 62.4 72.1 70c8.2 8.2 22.9 5.1 27.6-5.9 2.9-6.7-1.1-15.7-8.4-18.7-4.7-2-12.2-1.8-15.9.5zM232.5 140.4c-1.7.7-4.3 2.8-5.8 4.5-12.6 15 10 33.8 24.5 20.3 10.5-9.9 3.5-26.3-11.2-26.2-2.5.1-5.9.7-7.5 1.4z"/></svg>