<svg version="1" xmlns="http://www.w3.org/2000/svg" width="170.667" height="170.667" viewBox="0 0 128.000000 128.000000"><path d="M25.9 1.8C11 7.9 4.9 22.1 11.6 35.7c1.4 3 3.2 5.7 4 6 .9.3-.2 2.5-3.9 7.3-2.9 3.8-6.5 10.1-8.1 14.2C1 69.4.6 71.9.6 80 .5 87.9.9 90.6 3 95.8c7.2 18.1 26.5 31.1 47.5 31.8 16.5.6 28.3-4.2 40.5-16.6 5.6-5.6 8.3-9.4 10.5-14.3 2.3-5.2 3.6-6.8 5.5-7.3 9-2 15.3-6.3 18.8-12.8 2.1-4.2 2.2-15.1 0-19.2-2.8-5.2-9.7-11.2-15.1-13.3-3.6-1.3-7.3-1.9-12.2-1.8-6.5.2-7.3 0-11.5-3.2-5.7-4.3-13-7.7-19.6-9.2l-5.1-1.2v-4.6c0-8.7-5.7-16.8-15.2-21.6C42-.1 31.5-.4 25.9 1.8z"/></svg>