<svg width="18" height="18" xmlns="http://www.w3.org/2000/svg">

 <g id="imagebot_1">
  <path fill="white" id="imagebot_2" d="M 17.758790009384157 15.665040009384157 L 15.661130009384156 17.758790009384157 C 15.278320009384156 18.145500009384154 14.653320009384156 18.145500009384154 14.266600009384156 17.758790009384157 L 9.024410009384155 12.520500009384154 L 3.7861300093841557 17.758790009384157 C 3.3994100093841553 18.145500009384154 2.770500009384155 18.145500009384154 2.387690009384155 17.758790009384157 L 0.2900400093841551 15.665040009384157 C -0.09667999061584442 15.278320009384156 -0.09667999061584442 14.653320009384156 0.2900400093841551 14.266600009384156 L 5.528320009384155 9.024410009384155 L 0.2900400093841551 3.7861300093841557 C -0.09277999061584463 3.395500009384155 -0.09277999061584463 2.766600009384155 0.2900400093841551 2.387690009384155 L 2.387690009384155 0.2900400093841551 C 2.770500009384155 -0.09667999061584442 3.3994100093841553 -0.09667999061584442 3.7861300093841557 0.2900400093841551 L 9.024410009384155 5.5322200093841545 L 14.266600009384156 0.2900400093841551 C 14.653320009384156 -0.09667999061584442 15.282220009384154 -0.09667999061584442 15.661130009384156 0.2900400093841551 L 17.758790009384157 2.383790009384155 C 18.145500009384154 2.770500009384155 18.145500009384154 3.3994100093841553 17.762690009384155 3.7861300093841557 L 12.520500009384154 9.024410009384155 L 17.758790009384157 14.266600009384156 C 18.145500009384154 14.653320009384156 18.145500009384154 15.278320009384156 17.758790009384157 15.665040009384157 z"/>
  <title>imagebot_1</title>
 </g>
</svg>