<?xml version="1.0" encoding="UTF-8"?>
<!DOCTYPE svg PUBLIC "-//W3C//DTD SVG 1.1//EN" "http://www.w3.org/Graphics/SVG/1.1/DTD/svg11.dtd">
<!-- Creator: CorelDRAW 2017 -->
<svg xmlns="http://www.w3.org/2000/svg" xml:space="preserve" width="100%" height="100%" version="1.1" style="shape-rendering:geometricPrecision; text-rendering:geometricPrecision; image-rendering:optimizeQuality; fill-rule:evenodd; clip-rule:evenodd"
viewBox="0 0 108370 108374"
 xmlns:xlink="http://www.w3.org/1999/xlink">
 <defs>
  <style type="text/css">
   <![CDATA[
    .fil3 {fill:#1A1A1A}
    .fil0 {fill:dodgerblue}
    .fil2 {fill:white}
    .fil1 {fill:#333333;fill-rule:nonzero}
   ]]>
  </style>
 </defs>
 <g id="Слой_x0020_1">
  <metadata id="CorelCorpID_0Corel-Layer"/>
  <path class="fil0" d="M88622 75808c6523,-309 12649,-3212 16383,-8408 6508,-9054 3288,-21639 -7192,-28109 -6234,-3849 -13633,-4667 -19975,-2792 -2181,-2097 -4635,-4012 -7358,-5693 -5569,-3438 -11673,-5550 -17879,-6420 1319,-7883 -2257,-16125 -9891,-20838 -10480,-6471 -24635,-3842 -31616,5870 -6208,8637 -4653,19965 3134,26919 -1859,1775 -3572,3730 -5105,5863 -34823,48448 38827,93920 73650,45472 2691,-3745 4628,-7751 5849,-11864zm-6083 -33945c6061,8263 8645,18325 7319,28181 1277,-188 2535,-543 3741,-1079 7231,-3210 9875,-11653 5904,-18858 -3381,-6136 -10469,-9394 -16964,-8244zm-62741 -10022c7439,-5048 16365,-7767 25434,-7910 1183,-5520 -1226,-11406 -6593,-14720 -7105,-4387 -16701,-2605 -21434,3980 -4330,6024 -3089,13980 2593,18650z"/>
  <path class="fil1" d="M10436 58021c-327,-712 49,-1528 824,-1824 783,-296 840,1696 1167,2416 8,24 2342,7599 14262,5679 12581,-2024 18545,96 19965,1112 73,48 131,96 253,168 661,408 2236,1504 3468,3984 1150,2320 1999,6919 1558,12463 -702,8616 8747,7664 9619,7664 572,-56 5948,-312 6234,-696 1754,-784 2562,-112 1453,1416 -1159,1576 -7441,2056 -7458,2056l-131 8c-40,0 -14213,2592 -14759,-8808 400,-4999 -359,-8151 -1338,-10127 -898,-1808 -1934,-2544 -2367,-2808l-8 0c-81,-48 -244,-168 -440,-304 -1094,-792 -3631,-2616 -14874,-808 -14352,2304 -17411,-11559 -17428,-11591z"/>
  <path class="fil2" d="M21499 33057c-7105,-4387 -9028,-13281 -4294,-19866 4733,-6585 14329,-8367 21434,-3980 7105,4387 9027,13281 4294,19866 -4733,6584 -14329,8366 -21434,3980zm51816 28675c3971,7205 13052,10443 20284,7233 7232,-3210 9875,-11653 5904,-18858 -3971,-7205 -13052,-10444 -20284,-7234 -7232,3211 -9875,11654 -5904,18859z"/>
  <path class="fil3" d="M89893 51171c2717,1678 3453,5080 1643,7599 -1811,2518 -5482,3200 -8199,1522 -2718,-1677 -3453,-5080 -1643,-7598 1810,-2519 5481,-3201 8199,-1523z"/>
  <path class="fil3" d="M33605 16817c2718,1677 3453,5080 1643,7598 -1810,2519 -5481,3201 -8199,1523 -2717,-1678 -3453,-5080 -1642,-7599 1810,-2518 5481,-3200 8198,-1522z"/>
 </g>
</svg>
