<?xml version="1.0" encoding="UTF-8"?>
<!DOCTYPE svg PUBLIC "-//W3C//DTD SVG 1.1//EN" "http://www.w3.org/Graphics/SVG/1.1/DTD/svg11.dtd">
<svg xmlns="http://www.w3.org/2000/svg" xml:space="preserve" width="100%" height="100%" version="1.1" style="shape-rendering:geometricPrecision; text-rendering:geometricPrecision; image-rendering:optimizeQuality; fill-rule:evenodd; clip-rule:evenodd"
viewBox="0 0 390223 64685"
 xmlns:xlink="http://www.w3.org/1999/xlink">
 <defs>
  <style type="text/css">
   <![CDATA[
    .fil0 {fill:darkgrey;fill-rule:nonzero}
   ]]>
  </style>
 </defs>
 <g id="Слой_x0020_1">
  <metadata id="CorelCorpID_0Corel-Layer"/>
  <path class="fil0" d="M17611 17187c-1411,0 -2498,311 -3260,931 -762,621 -1397,1708 -1905,3260 -508,1552 -1100,3994 -1778,7324l-10668 677c226,-1411 720,-4459 1482,-9144 762,-4685 1397,-9031 1905,-13039l1270 -1185 9737 931 25823 0 10245 -931 931 1185c-564,5024 -1058,9540 -1481,13547 -424,4008 -692,6661 -805,7959l-10583 677c113,-3386 169,-5418 169,-6096 0,-1750 -113,-3048 -339,-3895 -225,-846 -606,-1425 -1143,-1735 -536,-311 -1340,-466 -2413,-466 -846,5475 -1778,11938 -2794,19389 -1016,7451 -1524,11853 -1524,13208 0,1524 283,2611 847,3260 565,649 1496,973 2794,973 1016,0 1919,-28 2709,-84 791,-57 1299,-113 1524,-170l339 508 -1693 7959c-1298,-56 -3937,-155 -7917,-296 -3979,-141 -6956,-212 -8932,-212 -2201,0 -5263,113 -9186,339 -3923,225 -6506,367 -7747,423l1608 -7789c2315,-226 4064,-565 5250,-1016 1185,-452 2060,-1143 2624,-2075 565,-931 960,-2300 1186,-4106l3725 -30311zm44540 45551c-4855,0 -8594,-1439 -11219,-4318 -2624,-2879 -3937,-6971 -3937,-12277 0,-5080 946,-9539 2837,-13377 1891,-3838 4558,-6802 8001,-8890 3443,-2089 7450,-3133 12022,-3133 4911,0 8665,1369 11261,4107 2597,2737 3895,6702 3895,11895 0,5193 -946,9751 -2837,13674 -1890,3923 -4557,6957 -8001,9102 -3443,2145 -7450,3217 -12022,3217zm3302 -9059c1129,0 1989,-410 2582,-1228 593,-818 1030,-2215 1312,-4191 283,-1976 424,-4798 424,-8467 0,-3217 -240,-5503 -720,-6858 -480,-1354 -1312,-2032 -2498,-2032 -1636,0 -2779,917 -3429,2752 -649,1834 -973,5122 -973,9864 0,3781 240,6420 719,7916 480,1496 1341,2244 2583,2244zm62065 -2879c-2314,3612 -4925,6463 -7832,8551 -2907,2089 -5546,3133 -7916,3133 -1750,0 -3133,-607 -4149,-1820 -1016,-1214 -1496,-3006 -1439,-5377l508 -18626 -1101 0 -5334 16256c-1185,3499 -2611,6011 -4276,7535 -1665,1524 -3937,2286 -6815,2286 -2823,-3104 -4516,-6745 -5080,-10922l846 -1609c3839,-790 6463,-2737 7874,-5842l5165 -11345c508,-1129 762,-1976 762,-2540 0,-565 -254,-988 -762,-1270 -508,-282 -1383,-480 -2625,-593l-508 -762 1609 -6180c4854,112 8439,169 10753,169 2427,0 6011,-57 10752,-169l1186 1185 1016 25993 254 254c282,0 1298,-903 3048,-2710l1947 0 2117 4403zm38493 -14986c-1806,-226 -3048,-339 -3726,-339 -2652,0 -4967,678 -6942,2032l6350 11346c621,1129 1354,2046 2201,2751 847,706 1919,1313 3217,1821l85 2116c-2991,2992 -6096,5334 -9313,7028 -2710,-565 -4629,-1355 -5758,-2371 -1128,-1016 -2144,-2907 -3048,-5673l-2032 -6265c-1128,1919 -2427,4459 -3894,7620l-254 2032c-113,1185 -1411,2215 -3895,3090 -2484,875 -5334,1313 -8551,1313l-1694 -1948 4318 -27093c57,-339 85,-762 85,-1270 0,-847 -198,-1454 -593,-1820 -395,-367 -1072,-551 -2032,-551l-2286 0 1016 -6942c4121,0 10330,-339 18627,-1016l1101 1778c-565,1749 -1200,4261 -1905,7535 -706,3274 -1284,6350 -1736,9229l593 169c3161,-6548 6180,-11289 9059,-14224 2879,-2935 5899,-4403 9059,-4403 791,0 1609,85 2456,254 903,2145 1355,4798 1355,7959 0,1524 -142,2991 -424,4403l-1439 1439zm58941 17272l0 677c0,1411 184,2315 550,2710 367,395 1087,592 2160,592 1185,0 1975,-84 2370,-254l593 847 -1609 6943c-5701,-226 -10245,-339 -13631,-339 -113,0 -4290,113 -12531,339 -339,56 -903,84 -1693,84l1524 -7027c1919,-452 3302,-974 4148,-1566 847,-593 1468,-1567 1863,-2921l-2371 0c-6321,0 -11260,-1454 -14816,-4361 -3556,-2907 -5334,-6900 -5334,-11980 0,-6548 2441,-11741 7323,-15579 4883,-3838 11501,-5898 19855,-6181l84 0 85 -1100c0,-847 -183,-1440 -550,-1778 -367,-339 -1002,-508 -1905,-508l-2286 84 -593 -1100 1439 -6266 13378 0 8382 -254c903,0 2879,-56 5927,-169l-1524 7451c-1863,282 -3133,649 -3810,1100 -678,452 -1129,1270 -1355,2456l1863 0c6321,0 11260,1453 14816,4360 3556,2907 5334,6901 5334,11981 0,4346 -1115,8128 -3344,11345 -2230,3217 -5405,5715 -9525,7493 -4121,1778 -8947,2752 -14478,2921l-339 0zm10838 -20320c0,-2822 -551,-5024 -1651,-6604 -1101,-1581 -2667,-2399 -4699,-2455l-339 0 -1016 6604c-734,4402 -1440,9115 -2117,14139l2286 0c2484,0 4361,-1002 5631,-3006 1270,-2004 1905,-4896 1905,-8678zm-32851 2540c0,2879 550,5122 1651,6731 1100,1609 2695,2441 4783,2498l508 0 2540 -20744 -1862 0c-5080,0 -7620,3838 -7620,11515zm86644 13377c564,0 2032,-1157 4402,-3471l1948 339 1693 4064c-3161,3556 -5757,6251 -7789,8085 -2032,1835 -3824,3133 -5377,3895 -1552,762 -3146,1143 -4783,1143 -2879,0 -4318,-1355 -4318,-4064 0,-1016 705,-4459 2116,-10329l-846 0c-2314,3951 -4332,7027 -6054,9228 -1721,2202 -3457,3923 -5207,5165 -4008,0 -7140,-1171 -9398,-3514 -2258,-2342 -3387,-5602 -3387,-9779 0,-4346 1059,-8678 3175,-12996 2117,-4318 4855,-7846 8213,-10583 3359,-2738 6731,-4107 10118,-4107l6096 1694 423 -1694 1609 -1016 11345 1016 677 1948c-2370,10780 -4035,19021 -4995,24722l339 254zm-20320 932c903,0 2272,-1778 4106,-5334 1835,-3556 3316,-7366 4445,-11430 -2314,-1468 -4403,-2202 -6265,-2202 -508,0 -1030,678 -1567,2032 -536,1355 -987,3076 -1354,5165 -367,2088 -551,4149 -551,6181 0,1580 113,2906 339,3979 226,1072 508,1609 847,1609zm72899 0c-3161,3556 -5758,6251 -7790,8085 -2032,1835 -3824,3133 -5376,3895 -1552,762 -3147,1143 -4784,1143 -2879,0 -4318,-1355 -4318,-4064 0,-564 184,-1722 550,-3471 367,-1750 1002,-4459 1905,-8128l-677 -170c-3499,8128 -6858,13321 -10075,15579 -3726,0 -6618,-804 -8679,-2413 -2060,-1609 -3090,-3824 -3090,-6646 0,-960 254,-2470 762,-4530 508,-2060 1072,-4135 1693,-6223 621,-2032 1172,-4022 1651,-5969 480,-1947 720,-3373 720,-4276 0,-959 -226,-1665 -677,-2116 -452,-452 -1157,-678 -2117,-678l-2371 0 1016 -6942c3782,0 10076,-339 18881,-1016l1355 1693c-4121,13942 -6181,21675 -6181,23199 0,677 71,1157 212,1439 141,282 437,423 889,423 1750,0 4854,-5785 9313,-17356l1101 -8467 1693 -1016 12446 85 1270 1693c-1129,3556 -2244,7493 -3344,11811 -1101,4318 -1962,8142 -2583,11472l339 339c734,-339 1609,-931 2625,-1778l1947 339 1694 4064zm-27941 -49615l847 84c847,2202 2173,3881 3979,5038 1807,1157 3839,1736 6096,1736 2089,0 4121,-522 6096,-1567 1976,-1044 3613,-2582 4911,-4614l847 85 1185 3725c-1524,3951 -3965,7027 -7324,9229 -3358,2201 -6843,3302 -10456,3302 -3443,0 -6265,-1002 -8467,-3006 -2201,-2004 -3245,-4840 -3132,-8509l5418 -5503zm76002 49615c-4347,4967 -7804,8396 -10372,10287 -2568,1891 -5038,2836 -7409,2836 -1806,0 -3245,-536 -4318,-1609 -1072,-1072 -1495,-2427 -1270,-4064l1694 -10583 -2117 0 -5503 339 -1609 11091c-169,1185 -1482,2215 -3937,3090 -2455,875 -5292,1313 -8509,1313l-1693 -1948 4318 -27093c56,-339 84,-762 84,-1270 0,-847 -197,-1454 -592,-1820 -395,-367 -1073,-551 -2032,-551l-2286 0 1016 -6942c4572,0 10781,-339 18626,-1016l1101 1778c-959,3273 -1975,7761 -3048,13462 734,56 1806,84 3217,84 2145,0 3613,-28 4403,-84l2201 -13886 1101 -1270 12785 -338 1270 1524c-2314,8466 -4149,16961 -5504,25484l339 254c226,0 663,-254 1312,-762 650,-508 1680,-1411 3091,-2709l1947 339 1694 4064z"/>
 </g>
</svg>
